<mxfile host="www.draw.io" modified="2019-10-30T22:58:09.252Z" agent="Mozilla/5.0 (Windows NT 10.0; Win64; x64) AppleWebKit/537.36 (KHTML, like Gecko) Chrome/78.0.3904.70 Safari/537.36" etag="_DBJ7lO2LzYZsZkmrqye" version="12.1.9" type="github" pages="2">
  <diagram id="f3U6_tGrIJSG0fhm1igf" name="Page-1">
    <mxGraphModel dx="1761" dy="924" grid="0" gridSize="10" guides="1" tooltips="1" connect="1" arrows="1" fold="1" page="1" pageScale="1" pageWidth="827" pageHeight="1169" math="0" shadow="0">
      <root>
        <mxCell id="0"/>
        <mxCell id="1" parent="0"/>
        <mxCell id="isZ0rMAmsqO41dP7FQZG-6" style="edgeStyle=orthogonalEdgeStyle;rounded=0;orthogonalLoop=1;jettySize=auto;html=1;exitX=0.5;exitY=1;exitDx=0;exitDy=0;entryX=0.5;entryY=0;entryDx=0;entryDy=0;" edge="1" parent="1" source="isZ0rMAmsqO41dP7FQZG-2" target="isZ0rMAmsqO41dP7FQZG-5">
          <mxGeometry relative="1" as="geometry"/>
        </mxCell>
        <mxCell id="isZ0rMAmsqO41dP7FQZG-2" value="input n" style="shape=parallelogram;html=1;strokeWidth=2;perimeter=parallelogramPerimeter;whiteSpace=wrap;rounded=1;arcSize=12;size=0.23;" vertex="1" parent="1">
          <mxGeometry x="368" y="70" width="90" height="30" as="geometry"/>
        </mxCell>
        <mxCell id="isZ0rMAmsqO41dP7FQZG-4" style="edgeStyle=orthogonalEdgeStyle;rounded=0;orthogonalLoop=1;jettySize=auto;html=1;exitX=0.5;exitY=1;exitDx=0;exitDy=0;exitPerimeter=0;entryX=0.5;entryY=0;entryDx=0;entryDy=0;" edge="1" parent="1" source="isZ0rMAmsqO41dP7FQZG-3" target="isZ0rMAmsqO41dP7FQZG-2">
          <mxGeometry relative="1" as="geometry"/>
        </mxCell>
        <mxCell id="isZ0rMAmsqO41dP7FQZG-3" value="START" style="strokeWidth=2;html=1;shape=mxgraph.flowchart.terminator;whiteSpace=wrap;" vertex="1" parent="1">
          <mxGeometry x="373" y="10" width="80" height="40" as="geometry"/>
        </mxCell>
        <mxCell id="isZ0rMAmsqO41dP7FQZG-8" style="edgeStyle=orthogonalEdgeStyle;rounded=0;orthogonalLoop=1;jettySize=auto;html=1;exitX=0.5;exitY=1;exitDx=0;exitDy=0;entryX=0.5;entryY=0;entryDx=0;entryDy=0;" edge="1" parent="1" source="isZ0rMAmsqO41dP7FQZG-5" target="isZ0rMAmsqO41dP7FQZG-7">
          <mxGeometry relative="1" as="geometry"/>
        </mxCell>
        <mxCell id="isZ0rMAmsqO41dP7FQZG-5" value="m=linespace(1,1000,1000)" style="rounded=1;whiteSpace=wrap;html=1;absoluteArcSize=1;arcSize=14;strokeWidth=2;" vertex="1" parent="1">
          <mxGeometry x="338" y="125" width="150" height="40" as="geometry"/>
        </mxCell>
        <mxCell id="isZ0rMAmsqO41dP7FQZG-10" style="edgeStyle=orthogonalEdgeStyle;rounded=0;orthogonalLoop=1;jettySize=auto;html=1;exitX=0.5;exitY=1;exitDx=0;exitDy=0;entryX=0.5;entryY=0;entryDx=0;entryDy=0;" edge="1" parent="1" source="isZ0rMAmsqO41dP7FQZG-7" target="isZ0rMAmsqO41dP7FQZG-9">
          <mxGeometry relative="1" as="geometry"/>
        </mxCell>
        <mxCell id="isZ0rMAmsqO41dP7FQZG-7" value="a=0" style="rounded=1;whiteSpace=wrap;html=1;absoluteArcSize=1;arcSize=14;strokeWidth=2;" vertex="1" parent="1">
          <mxGeometry x="382" y="190" width="62" height="30" as="geometry"/>
        </mxCell>
        <mxCell id="isZ0rMAmsqO41dP7FQZG-12" style="edgeStyle=orthogonalEdgeStyle;rounded=0;orthogonalLoop=1;jettySize=auto;html=1;exitX=0.5;exitY=1;exitDx=0;exitDy=0;entryX=0.5;entryY=0;entryDx=0;entryDy=0;entryPerimeter=0;" edge="1" parent="1" source="isZ0rMAmsqO41dP7FQZG-9" target="isZ0rMAmsqO41dP7FQZG-11">
          <mxGeometry relative="1" as="geometry"/>
        </mxCell>
        <mxCell id="isZ0rMAmsqO41dP7FQZG-9" value="res=2" style="rounded=1;whiteSpace=wrap;html=1;absoluteArcSize=1;arcSize=14;strokeWidth=2;" vertex="1" parent="1">
          <mxGeometry x="382" y="240" width="62" height="30" as="geometry"/>
        </mxCell>
        <mxCell id="isZ0rMAmsqO41dP7FQZG-14" style="edgeStyle=orthogonalEdgeStyle;rounded=0;orthogonalLoop=1;jettySize=auto;html=1;exitX=0.5;exitY=1;exitDx=0;exitDy=0;exitPerimeter=0;entryX=0.5;entryY=0;entryDx=0;entryDy=0;entryPerimeter=0;" edge="1" parent="1" source="isZ0rMAmsqO41dP7FQZG-11" target="isZ0rMAmsqO41dP7FQZG-13">
          <mxGeometry relative="1" as="geometry"/>
        </mxCell>
        <mxCell id="isZ0rMAmsqO41dP7FQZG-11" value="i=3:length(m)" style="strokeWidth=2;html=1;shape=mxgraph.flowchart.loop_limit;whiteSpace=wrap;" vertex="1" parent="1">
          <mxGeometry x="368" y="290" width="90" height="50" as="geometry"/>
        </mxCell>
        <mxCell id="isZ0rMAmsqO41dP7FQZG-16" style="edgeStyle=orthogonalEdgeStyle;rounded=0;orthogonalLoop=1;jettySize=auto;html=1;exitX=0.5;exitY=1;exitDx=0;exitDy=0;exitPerimeter=0;entryX=0.5;entryY=0;entryDx=0;entryDy=0;entryPerimeter=0;" edge="1" parent="1" source="isZ0rMAmsqO41dP7FQZG-13" target="isZ0rMAmsqO41dP7FQZG-15">
          <mxGeometry relative="1" as="geometry"/>
        </mxCell>
        <mxCell id="isZ0rMAmsqO41dP7FQZG-13" value="j=2:i-1" style="strokeWidth=2;html=1;shape=mxgraph.flowchart.loop_limit;whiteSpace=wrap;" vertex="1" parent="1">
          <mxGeometry x="377" y="360" width="72" height="40" as="geometry"/>
        </mxCell>
        <mxCell id="isZ0rMAmsqO41dP7FQZG-18" style="edgeStyle=orthogonalEdgeStyle;rounded=0;orthogonalLoop=1;jettySize=auto;html=1;exitX=1;exitY=0.5;exitDx=0;exitDy=0;exitPerimeter=0;entryX=0;entryY=0.5;entryDx=0;entryDy=0;" edge="1" parent="1" source="isZ0rMAmsqO41dP7FQZG-15" target="isZ0rMAmsqO41dP7FQZG-17">
          <mxGeometry relative="1" as="geometry"/>
        </mxCell>
        <mxCell id="isZ0rMAmsqO41dP7FQZG-20" style="edgeStyle=orthogonalEdgeStyle;rounded=0;orthogonalLoop=1;jettySize=auto;html=1;exitX=0.5;exitY=1;exitDx=0;exitDy=0;exitPerimeter=0;entryX=0.5;entryY=0;entryDx=0;entryDy=0;" edge="1" parent="1" source="isZ0rMAmsqO41dP7FQZG-15" target="isZ0rMAmsqO41dP7FQZG-19">
          <mxGeometry relative="1" as="geometry"/>
        </mxCell>
        <mxCell id="isZ0rMAmsqO41dP7FQZG-15" value="mod(m(i),j)=0" style="strokeWidth=2;html=1;shape=mxgraph.flowchart.decision;whiteSpace=wrap;" vertex="1" parent="1">
          <mxGeometry x="340" y="420" width="147" height="60" as="geometry"/>
        </mxCell>
        <mxCell id="isZ0rMAmsqO41dP7FQZG-44" style="edgeStyle=orthogonalEdgeStyle;rounded=0;orthogonalLoop=1;jettySize=auto;html=1;exitX=0.5;exitY=1;exitDx=0;exitDy=0;" edge="1" parent="1" source="isZ0rMAmsqO41dP7FQZG-17">
          <mxGeometry relative="1" as="geometry">
            <mxPoint x="410" y="840" as="targetPoint"/>
            <Array as="points">
              <mxPoint x="565" y="840"/>
            </Array>
          </mxGeometry>
        </mxCell>
        <mxCell id="isZ0rMAmsqO41dP7FQZG-17" value="a=1" style="rounded=1;whiteSpace=wrap;html=1;absoluteArcSize=1;arcSize=14;strokeWidth=2;" vertex="1" parent="1">
          <mxGeometry x="530" y="435" width="70" height="30" as="geometry"/>
        </mxCell>
        <mxCell id="isZ0rMAmsqO41dP7FQZG-25" style="edgeStyle=orthogonalEdgeStyle;rounded=0;orthogonalLoop=1;jettySize=auto;html=1;exitX=0.5;exitY=1;exitDx=0;exitDy=0;" edge="1" parent="1" source="isZ0rMAmsqO41dP7FQZG-19" target="isZ0rMAmsqO41dP7FQZG-23">
          <mxGeometry relative="1" as="geometry"/>
        </mxCell>
        <mxCell id="isZ0rMAmsqO41dP7FQZG-19" value="a=0" style="rounded=1;whiteSpace=wrap;html=1;absoluteArcSize=1;arcSize=14;strokeWidth=2;" vertex="1" parent="1">
          <mxGeometry x="377" y="505" width="70" height="30" as="geometry"/>
        </mxCell>
        <mxCell id="isZ0rMAmsqO41dP7FQZG-21" value="Y" style="text;html=1;strokeColor=none;fillColor=none;align=center;verticalAlign=middle;whiteSpace=wrap;rounded=0;" vertex="1" parent="1">
          <mxGeometry x="480" y="430" width="40" height="20" as="geometry"/>
        </mxCell>
        <mxCell id="isZ0rMAmsqO41dP7FQZG-22" value="N" style="text;html=1;strokeColor=none;fillColor=none;align=center;verticalAlign=middle;whiteSpace=wrap;rounded=0;" vertex="1" parent="1">
          <mxGeometry x="404" y="480" width="40" height="20" as="geometry"/>
        </mxCell>
        <mxCell id="isZ0rMAmsqO41dP7FQZG-39" style="edgeStyle=orthogonalEdgeStyle;rounded=0;orthogonalLoop=1;jettySize=auto;html=1;exitX=0.5;exitY=1;exitDx=0;exitDy=0;entryX=0.5;entryY=0;entryDx=0;entryDy=0;" edge="1" parent="1" source="isZ0rMAmsqO41dP7FQZG-23" target="isZ0rMAmsqO41dP7FQZG-26">
          <mxGeometry relative="1" as="geometry"/>
        </mxCell>
        <mxCell id="isZ0rMAmsqO41dP7FQZG-23" value="r=[res,m(i)]" style="rounded=1;whiteSpace=wrap;html=1;absoluteArcSize=1;arcSize=14;strokeWidth=2;" vertex="1" parent="1">
          <mxGeometry x="378" y="560" width="70" height="30" as="geometry"/>
        </mxCell>
        <mxCell id="isZ0rMAmsqO41dP7FQZG-33" style="edgeStyle=orthogonalEdgeStyle;rounded=0;orthogonalLoop=1;jettySize=auto;html=1;exitX=0.5;exitY=1;exitDx=0;exitDy=0;entryX=0.5;entryY=1;entryDx=0;entryDy=0;entryPerimeter=0;" edge="1" parent="1" source="isZ0rMAmsqO41dP7FQZG-26" target="isZ0rMAmsqO41dP7FQZG-28">
          <mxGeometry relative="1" as="geometry"/>
        </mxCell>
        <mxCell id="isZ0rMAmsqO41dP7FQZG-26" value="res=r" style="rounded=1;whiteSpace=wrap;html=1;absoluteArcSize=1;arcSize=14;strokeWidth=2;" vertex="1" parent="1">
          <mxGeometry x="378.5" y="620" width="70" height="30" as="geometry"/>
        </mxCell>
        <mxCell id="isZ0rMAmsqO41dP7FQZG-37" style="edgeStyle=orthogonalEdgeStyle;rounded=0;orthogonalLoop=1;jettySize=auto;html=1;exitX=0.5;exitY=0;exitDx=0;exitDy=0;exitPerimeter=0;entryX=0.5;entryY=1;entryDx=0;entryDy=0;entryPerimeter=0;" edge="1" parent="1" source="isZ0rMAmsqO41dP7FQZG-28" target="isZ0rMAmsqO41dP7FQZG-29">
          <mxGeometry relative="1" as="geometry"/>
        </mxCell>
        <mxCell id="isZ0rMAmsqO41dP7FQZG-28" value="" style="strokeWidth=2;html=1;shape=mxgraph.flowchart.loop_limit;whiteSpace=wrap;rotation=-180;" vertex="1" parent="1">
          <mxGeometry x="367" y="670" width="93" height="38" as="geometry"/>
        </mxCell>
        <mxCell id="isZ0rMAmsqO41dP7FQZG-41" style="edgeStyle=orthogonalEdgeStyle;rounded=0;orthogonalLoop=1;jettySize=auto;html=1;exitX=0.5;exitY=0;exitDx=0;exitDy=0;exitPerimeter=0;entryX=0.5;entryY=0;entryDx=0;entryDy=0;" edge="1" parent="1" source="isZ0rMAmsqO41dP7FQZG-29" target="isZ0rMAmsqO41dP7FQZG-40">
          <mxGeometry relative="1" as="geometry"/>
        </mxCell>
        <mxCell id="isZ0rMAmsqO41dP7FQZG-29" value="" style="strokeWidth=2;html=1;shape=mxgraph.flowchart.loop_limit;whiteSpace=wrap;rotation=180;" vertex="1" parent="1">
          <mxGeometry x="368.5" y="730" width="90" height="40" as="geometry"/>
        </mxCell>
        <mxCell id="isZ0rMAmsqO41dP7FQZG-32" value="&lt;span style=&quot;background-color: rgb(255 , 255 , 255)&quot;&gt;end of loop i&lt;/span&gt;" style="text;html=1;strokeColor=none;fillColor=none;align=center;verticalAlign=middle;whiteSpace=wrap;rounded=0;" vertex="1" parent="1">
          <mxGeometry x="373" y="679" width="80" height="20" as="geometry"/>
        </mxCell>
        <mxCell id="isZ0rMAmsqO41dP7FQZG-38" value="&lt;span style=&quot;background-color: rgb(255 , 255 , 255)&quot;&gt;end of loop j&lt;/span&gt;" style="text;html=1;strokeColor=none;fillColor=none;align=center;verticalAlign=middle;whiteSpace=wrap;rounded=0;" vertex="1" parent="1">
          <mxGeometry x="373.5" y="740" width="80" height="20" as="geometry"/>
        </mxCell>
        <mxCell id="isZ0rMAmsqO41dP7FQZG-43" style="edgeStyle=orthogonalEdgeStyle;rounded=0;orthogonalLoop=1;jettySize=auto;html=1;exitX=0.5;exitY=1;exitDx=0;exitDy=0;entryX=0.5;entryY=0;entryDx=0;entryDy=0;entryPerimeter=0;" edge="1" parent="1" source="isZ0rMAmsqO41dP7FQZG-40" target="isZ0rMAmsqO41dP7FQZG-42">
          <mxGeometry relative="1" as="geometry"/>
        </mxCell>
        <mxCell id="isZ0rMAmsqO41dP7FQZG-40" value="output r(n)" style="shape=parallelogram;html=1;strokeWidth=2;perimeter=parallelogramPerimeter;whiteSpace=wrap;rounded=1;arcSize=12;size=0.23;" vertex="1" parent="1">
          <mxGeometry x="367" y="800" width="90" height="30" as="geometry"/>
        </mxCell>
        <mxCell id="isZ0rMAmsqO41dP7FQZG-42" value="END" style="strokeWidth=2;html=1;shape=mxgraph.flowchart.terminator;whiteSpace=wrap;" vertex="1" parent="1">
          <mxGeometry x="373" y="860" width="80" height="40" as="geometry"/>
        </mxCell>
      </root>
    </mxGraphModel>
  </diagram>
  <diagram id="qRjl2YFDmDMabM4vRDaL" name="Page-2">
    <mxGraphModel dx="237" dy="506" grid="1" gridSize="10" guides="1" tooltips="1" connect="1" arrows="1" fold="1" page="1" pageScale="1" pageWidth="827" pageHeight="1169" math="0" shadow="0">
      <root>
        <mxCell id="Vm7tiG3veEUPiETsz16o-0"/>
        <mxCell id="Vm7tiG3veEUPiETsz16o-1" parent="Vm7tiG3veEUPiETsz16o-0"/>
        <mxCell id="Vm7tiG3veEUPiETsz16o-12" style="edgeStyle=orthogonalEdgeStyle;rounded=0;orthogonalLoop=1;jettySize=auto;html=1;exitX=0.5;exitY=1;exitDx=0;exitDy=0;entryX=0.5;entryY=0;entryDx=0;entryDy=0;" edge="1" parent="Vm7tiG3veEUPiETsz16o-1" source="Vm7tiG3veEUPiETsz16o-4" target="Vm7tiG3veEUPiETsz16o-9">
          <mxGeometry relative="1" as="geometry"/>
        </mxCell>
        <mxCell id="Vm7tiG3veEUPiETsz16o-4" value="F(2)=1" style="rounded=1;whiteSpace=wrap;html=1;absoluteArcSize=1;arcSize=14;strokeWidth=2;" vertex="1" parent="Vm7tiG3veEUPiETsz16o-1">
          <mxGeometry x="379" y="130" width="67" height="30" as="geometry"/>
        </mxCell>
        <mxCell id="Vm7tiG3veEUPiETsz16o-20" style="edgeStyle=orthogonalEdgeStyle;rounded=0;orthogonalLoop=1;jettySize=auto;html=1;exitX=0.5;exitY=1;exitDx=0;exitDy=0;entryX=0.5;entryY=0;entryDx=0;entryDy=0;entryPerimeter=0;" edge="1" parent="Vm7tiG3veEUPiETsz16o-1" source="Vm7tiG3veEUPiETsz16o-6" target="Vm7tiG3veEUPiETsz16o-17">
          <mxGeometry relative="1" as="geometry"/>
        </mxCell>
        <mxCell id="Vm7tiG3veEUPiETsz16o-6" value="input n" style="shape=parallelogram;html=1;strokeWidth=2;perimeter=parallelogramPerimeter;whiteSpace=wrap;rounded=1;arcSize=12;size=0.23;" vertex="1" parent="Vm7tiG3veEUPiETsz16o-1">
          <mxGeometry x="371.5" y="240" width="83" height="30" as="geometry"/>
        </mxCell>
        <mxCell id="Vm7tiG3veEUPiETsz16o-10" style="edgeStyle=orthogonalEdgeStyle;rounded=0;orthogonalLoop=1;jettySize=auto;html=1;exitX=0.5;exitY=1;exitDx=0;exitDy=0;exitPerimeter=0;entryX=0.5;entryY=0;entryDx=0;entryDy=0;" edge="1" parent="Vm7tiG3veEUPiETsz16o-1" source="Vm7tiG3veEUPiETsz16o-7" target="Vm7tiG3veEUPiETsz16o-8">
          <mxGeometry relative="1" as="geometry"/>
        </mxCell>
        <mxCell id="Vm7tiG3veEUPiETsz16o-7" value="START" style="strokeWidth=2;html=1;shape=mxgraph.flowchart.terminator;whiteSpace=wrap;" vertex="1" parent="Vm7tiG3veEUPiETsz16o-1">
          <mxGeometry x="379" y="20" width="68" height="40" as="geometry"/>
        </mxCell>
        <mxCell id="Vm7tiG3veEUPiETsz16o-11" style="edgeStyle=orthogonalEdgeStyle;rounded=0;orthogonalLoop=1;jettySize=auto;html=1;exitX=0.5;exitY=1;exitDx=0;exitDy=0;entryX=0.5;entryY=0;entryDx=0;entryDy=0;" edge="1" parent="Vm7tiG3veEUPiETsz16o-1" source="Vm7tiG3veEUPiETsz16o-8" target="Vm7tiG3veEUPiETsz16o-4">
          <mxGeometry relative="1" as="geometry"/>
        </mxCell>
        <mxCell id="Vm7tiG3veEUPiETsz16o-8" value="F(1)=1" style="rounded=1;whiteSpace=wrap;html=1;absoluteArcSize=1;arcSize=14;strokeWidth=2;" vertex="1" parent="Vm7tiG3veEUPiETsz16o-1">
          <mxGeometry x="379" y="80" width="67" height="30" as="geometry"/>
        </mxCell>
        <mxCell id="Vm7tiG3veEUPiETsz16o-15" style="edgeStyle=orthogonalEdgeStyle;rounded=0;orthogonalLoop=1;jettySize=auto;html=1;exitX=0.5;exitY=1;exitDx=0;exitDy=0;entryX=0.5;entryY=0;entryDx=0;entryDy=0;" edge="1" parent="Vm7tiG3veEUPiETsz16o-1" source="Vm7tiG3veEUPiETsz16o-9" target="Vm7tiG3veEUPiETsz16o-6">
          <mxGeometry relative="1" as="geometry"/>
        </mxCell>
        <mxCell id="Vm7tiG3veEUPiETsz16o-9" value="a=2" style="rounded=1;whiteSpace=wrap;html=1;absoluteArcSize=1;arcSize=14;strokeWidth=2;" vertex="1" parent="Vm7tiG3veEUPiETsz16o-1">
          <mxGeometry x="379" y="180" width="67" height="30" as="geometry"/>
        </mxCell>
        <mxCell id="Vm7tiG3veEUPiETsz16o-21" style="edgeStyle=orthogonalEdgeStyle;rounded=0;orthogonalLoop=1;jettySize=auto;html=1;exitX=0.5;exitY=1;exitDx=0;exitDy=0;exitPerimeter=0;entryX=0.5;entryY=0;entryDx=0;entryDy=0;entryPerimeter=0;" edge="1" parent="Vm7tiG3veEUPiETsz16o-1" source="Vm7tiG3veEUPiETsz16o-17" target="Vm7tiG3veEUPiETsz16o-18">
          <mxGeometry relative="1" as="geometry"/>
        </mxCell>
        <mxCell id="Vm7tiG3veEUPiETsz16o-30" style="edgeStyle=orthogonalEdgeStyle;rounded=0;orthogonalLoop=1;jettySize=auto;html=1;exitX=1;exitY=0.5;exitDx=0;exitDy=0;exitPerimeter=0;entryX=0.5;entryY=0;entryDx=0;entryDy=0;" edge="1" parent="Vm7tiG3veEUPiETsz16o-1" source="Vm7tiG3veEUPiETsz16o-17" target="Vm7tiG3veEUPiETsz16o-27">
          <mxGeometry relative="1" as="geometry">
            <Array as="points">
              <mxPoint x="510" y="310"/>
              <mxPoint x="510" y="500"/>
              <mxPoint x="412" y="500"/>
            </Array>
          </mxGeometry>
        </mxCell>
        <mxCell id="Vm7tiG3veEUPiETsz16o-17" value="n&amp;lt;0" style="strokeWidth=2;html=1;shape=mxgraph.flowchart.decision;whiteSpace=wrap;" vertex="1" parent="Vm7tiG3veEUPiETsz16o-1">
          <mxGeometry x="368" y="290" width="90" height="40" as="geometry"/>
        </mxCell>
        <mxCell id="Vm7tiG3veEUPiETsz16o-24" style="edgeStyle=orthogonalEdgeStyle;rounded=0;orthogonalLoop=1;jettySize=auto;html=1;exitX=0.5;exitY=1;exitDx=0;exitDy=0;exitPerimeter=0;entryX=0.491;entryY=0.024;entryDx=0;entryDy=0;entryPerimeter=0;" edge="1" parent="Vm7tiG3veEUPiETsz16o-1" source="Vm7tiG3veEUPiETsz16o-18" target="Vm7tiG3veEUPiETsz16o-22">
          <mxGeometry relative="1" as="geometry"/>
        </mxCell>
        <mxCell id="Vm7tiG3veEUPiETsz16o-32" style="edgeStyle=orthogonalEdgeStyle;rounded=0;orthogonalLoop=1;jettySize=auto;html=1;exitX=0;exitY=0.5;exitDx=0;exitDy=0;exitPerimeter=0;" edge="1" parent="Vm7tiG3veEUPiETsz16o-1" source="Vm7tiG3veEUPiETsz16o-18">
          <mxGeometry relative="1" as="geometry">
            <mxPoint x="412" y="590" as="targetPoint"/>
            <Array as="points">
              <mxPoint x="340" y="370"/>
              <mxPoint x="340" y="590"/>
            </Array>
          </mxGeometry>
        </mxCell>
        <mxCell id="Vm7tiG3veEUPiETsz16o-18" value="a&amp;lt;n" style="strokeWidth=2;html=1;shape=mxgraph.flowchart.decision;whiteSpace=wrap;" vertex="1" parent="Vm7tiG3veEUPiETsz16o-1">
          <mxGeometry x="367.5" y="350" width="90" height="40" as="geometry"/>
        </mxCell>
        <mxCell id="Vm7tiG3veEUPiETsz16o-28" style="edgeStyle=orthogonalEdgeStyle;rounded=0;orthogonalLoop=1;jettySize=auto;html=1;exitX=0.5;exitY=1;exitDx=0;exitDy=0;entryX=0.5;entryY=0;entryDx=0;entryDy=0;" edge="1" parent="Vm7tiG3veEUPiETsz16o-1" source="Vm7tiG3veEUPiETsz16o-22" target="Vm7tiG3veEUPiETsz16o-25">
          <mxGeometry relative="1" as="geometry"/>
        </mxCell>
        <mxCell id="Vm7tiG3veEUPiETsz16o-22" value="F(a+1)=F(a)+F(a-1)" style="rounded=1;whiteSpace=wrap;html=1;absoluteArcSize=1;arcSize=14;strokeWidth=2;" vertex="1" parent="Vm7tiG3veEUPiETsz16o-1">
          <mxGeometry x="358" y="410" width="111" height="30" as="geometry"/>
        </mxCell>
        <mxCell id="Vm7tiG3veEUPiETsz16o-31" style="edgeStyle=orthogonalEdgeStyle;rounded=0;orthogonalLoop=1;jettySize=auto;html=1;exitX=1;exitY=0.5;exitDx=0;exitDy=0;entryX=1;entryY=0.5;entryDx=0;entryDy=0;entryPerimeter=0;" edge="1" parent="Vm7tiG3veEUPiETsz16o-1" source="Vm7tiG3veEUPiETsz16o-25" target="Vm7tiG3veEUPiETsz16o-18">
          <mxGeometry relative="1" as="geometry">
            <Array as="points">
              <mxPoint x="490" y="475"/>
              <mxPoint x="490" y="370"/>
            </Array>
          </mxGeometry>
        </mxCell>
        <mxCell id="Vm7tiG3veEUPiETsz16o-25" value="a=a=1" style="rounded=1;whiteSpace=wrap;html=1;absoluteArcSize=1;arcSize=14;strokeWidth=2;" vertex="1" parent="Vm7tiG3veEUPiETsz16o-1">
          <mxGeometry x="379" y="460" width="67" height="30" as="geometry"/>
        </mxCell>
        <mxCell id="Vm7tiG3veEUPiETsz16o-33" style="edgeStyle=orthogonalEdgeStyle;rounded=0;orthogonalLoop=1;jettySize=auto;html=1;exitX=0.5;exitY=1;exitDx=0;exitDy=0;" edge="1" parent="Vm7tiG3veEUPiETsz16o-1" source="Vm7tiG3veEUPiETsz16o-27">
          <mxGeometry relative="1" as="geometry">
            <mxPoint x="412.16666666666674" y="610" as="targetPoint"/>
          </mxGeometry>
        </mxCell>
        <mxCell id="Vm7tiG3veEUPiETsz16o-27" value="The array of F(n)" style="shape=parallelogram;html=1;strokeWidth=2;perimeter=parallelogramPerimeter;whiteSpace=wrap;rounded=1;arcSize=12;size=0.23;" vertex="1" parent="Vm7tiG3veEUPiETsz16o-1">
          <mxGeometry x="343" y="520" width="139" height="40" as="geometry"/>
        </mxCell>
        <mxCell id="Vm7tiG3veEUPiETsz16o-34" value="END" style="strokeWidth=2;html=1;shape=mxgraph.flowchart.terminator;whiteSpace=wrap;" vertex="1" parent="Vm7tiG3veEUPiETsz16o-1">
          <mxGeometry x="379" y="610" width="68" height="40" as="geometry"/>
        </mxCell>
      </root>
    </mxGraphModel>
  </diagram>
</mxfile>
